HIERARCHY
ROOT hip
{
  OFFSET 0 0 0
  CHANNELS 6 Xposition Yposition Zposition Zrotation Yrotation Xrotation
  JOINT abdomen
  {
    OFFSET 0 20.6881 -0.73152
    CHANNELS 3 Zrotation Xrotation Yrotation
    JOINT chest
    {
      OFFSET 0 11.7043 -0.48768
      CHANNELS 3 Zrotation Xrotation Yrotation
      JOINT neck
      {
        OFFSET 0 22.1894 -2.19456
        CHANNELS 3 Zrotation Xrotation Yrotation
        JOINT head
        {
          OFFSET -0.24384 7.07133 1.2192
          CHANNELS 3 Zrotation Xrotation Yrotation
          JOINT leftEye
          {
            OFFSET 4.14528 8.04674 8.04672
            CHANNELS 3 Zrotation Xrotation Yrotation
            End Site
            {
              OFFSET 1 0 0
            }
          }
          JOINT rightEye
          {
            OFFSET -3.6576 8.04674 8.04672
            CHANNELS 3 Zrotation Xrotation Yrotation
            End Site
            {
              OFFSET 1 0 0
            }
          }
        }
      }
      JOINT rCollar
      {
        OFFSET -2.68224 19.2634 -4.8768
        CHANNELS 3 Zrotation Xrotation Yrotation
        JOINT rShldr
        {
          OFFSET -8.77824 -1.95073 1.46304
          CHANNELS 3 Zrotation Xrotation Yrotation
          JOINT rForeArm
          {
            OFFSET -28.1742 -1.7115 0.48768
            CHANNELS 3 Zrotation Xrotation Yrotation
            JOINT rHand
            {
              OFFSET -22.5879 0.773209 7.07136
              CHANNELS 3 Zrotation Xrotation Yrotation
              JOINT rThumb1
              {
                OFFSET -1.2192 -0.487915 3.41376
                CHANNELS 3 Zrotation Xrotation Yrotation
                JOINT rThumb2
                {
                  OFFSET -3.37035 -0.52449 3.41376
                  CHANNELS 3 Zrotation Xrotation Yrotation
                  End Site
                  {
                    OFFSET -1.78271 -1.18214 1.43049
                  }
                }
              }
              JOINT rIndex1
              {
                OFFSET -7.75947 0.938293 5.60832
                CHANNELS 3 Zrotation Xrotation Yrotation
                JOINT rIndex2
                {
                  OFFSET -2.54057 -0.884171 1.56538
                  CHANNELS 3 Zrotation Xrotation Yrotation
                  End Site
                  {
                    OFFSET -1.62519 -0.234802 1.16502
                  }
                }
              }
              JOINT rMid1
              {
                OFFSET -8.24714 1.18213 3.41376
                CHANNELS 3 Zrotation Xrotation Yrotation
                JOINT rMid2
                {
                  OFFSET -3.10165 -0.590103 1.0647
                  CHANNELS 3 Zrotation Xrotation Yrotation
                  End Site
                  {
                    OFFSET -2.48547 -0.328903 0.83742
                  }
                }
              }
              JOINT rRing1
              {
                OFFSET -8.82822 0.546677 1.51678
                CHANNELS 3 Zrotation Xrotation Yrotation
                JOINT rRing2
                {
                  OFFSET -2.60934 -0.819778 -0.0198488
                  CHANNELS 3 Zrotation Xrotation Yrotation
                  End Site
                  {
                    OFFSET -2.33842 -0.294052 0.168128
                  }
                }
              }
              JOINT rPinky1
              {
                OFFSET -8.27202 -0.0477905 -0.4584
                CHANNELS 3 Zrotation Xrotation Yrotation
                JOINT rPinky2
                {
                  OFFSET -1.82734 -0.647385 -0.700984
                  CHANNELS 3 Zrotation Xrotation Yrotation
                  End Site
                  {
                    OFFSET -1.69225 -0.51767 -0.607171
                  }
                }
              }
            }
          }
        }
      }
      JOINT lCollar
      {
        OFFSET 2.68224 19.2634 -4.8768
        CHANNELS 3 Zrotation Xrotation Yrotation
        JOINT lShldr
        {
          OFFSET 8.77824 -1.95073 1.46304
          CHANNELS 3 Zrotation Xrotation Yrotation
          JOINT lForeArm
          {
            OFFSET 28.1742 -1.7115 0.48768
            CHANNELS 3 Zrotation Xrotation Yrotation
            JOINT lHand
            {
              OFFSET 22.5879 0.773209 7.07136
              CHANNELS 3 Zrotation Xrotation Yrotation
              JOINT lThumb1
              {
                OFFSET 1.2192 -0.487915 3.41376
                CHANNELS 3 Zrotation Xrotation Yrotation
                JOINT lThumb2
                {
                  OFFSET 3.37035 -0.52449 3.41376
                  CHANNELS 3 Zrotation Xrotation Yrotation
                  End Site
                  {
                    OFFSET 1.78271 -1.18214 1.43049
                  }
                }
              }
              JOINT lIndex1
              {
                OFFSET 7.75947 0.938293 5.60832
                CHANNELS 3 Zrotation Xrotation Yrotation
                JOINT lIndex2
                {
                  OFFSET 2.54057 -0.884171 1.56538
                  CHANNELS 3 Zrotation Xrotation Yrotation
                  End Site
                  {
                    OFFSET 1.62519 -0.234802 1.16502
                  }
                }
              }
              JOINT lMid1
              {
                OFFSET 8.24714 1.18213 3.41376
                CHANNELS 3 Zrotation Xrotation Yrotation
                JOINT lMid2
                {
                  OFFSET 3.10165 -0.590103 1.0647
                  CHANNELS 3 Zrotation Xrotation Yrotation
                  End Site
                  {
                    OFFSET 2.48547 -0.328903 0.83742
                  }
                }
              }
              JOINT lRing1
              {
                OFFSET 8.82822 0.546677 1.51678
                CHANNELS 3 Zrotation Xrotation Yrotation
                JOINT lRing2
                {
                  OFFSET 2.60934 -0.819778 -0.0198488
                  CHANNELS 3 Zrotation Xrotation Yrotation
                  End Site
                  {
                    OFFSET 2.33842 -0.294052 0.168128
                  }
                }
              }
              JOINT lPinky1
              {
                OFFSET 8.27202 -0.0477905 -0.4584
                CHANNELS 3 Zrotation Xrotation Yrotation
                JOINT lPinky2
                {
                  OFFSET 1.82734 -0.647385 -0.700984
                  CHANNELS 3 Zrotation Xrotation Yrotation
                  End Site
                  {
                    OFFSET 1.69225 -0.51767 -0.607171
                  }
                }
              }
            }
          }
        }
      }
    }
  }
  JOINT rButtock
  {
    OFFSET -8.77824 4.35084 1.2192
    CHANNELS 3 Zrotation Xrotation Yrotation
    JOINT rThigh
    {
      OFFSET 0 -1.70687 -2.19456
      CHANNELS 3 Zrotation Xrotation Yrotation
      JOINT rShin
      {
        OFFSET 0 -36.8199 0.73152
        CHANNELS 3 Zrotation Xrotation Yrotation
        JOINT rFoot
        {
          OFFSET 0.73152 -45.1104 -5.12064
          CHANNELS 3 Zrotation Xrotation Yrotation
          End Site
          {
            OFFSET -1.1221 -3.69964 12.103
          }
        }
      }
    }
  }
  JOINT lButtock
  {
    OFFSET 8.77824 4.35084 1.2192
    CHANNELS 3 Zrotation Xrotation Yrotation
    JOINT lThigh
    {
      OFFSET 0 -1.70687 -2.19456
      CHANNELS 3 Zrotation Xrotation Yrotation
      JOINT lShin
      {
        OFFSET 0 -36.8199 0.73152
        CHANNELS 3 Zrotation Xrotation Yrotation
        JOINT lFoot
        {
          OFFSET -0.73152 -45.1104 -5.12064
          CHANNELS 3 Zrotation Xrotation Yrotation
          End Site
          {
            OFFSET 1.1221 -3.69964 12.103
          }
        }
      }
    }
  }
}
MOTION
Frames:	5
Frame Time:	0.03333
-0.1340399998753128 49.90189969539642 11.294900052598678 11.94231128692627 30.725191116333008 9.056597709655762 -20.386409759521484 9.596227645874023 4.334272384643555 5.4066925048828125 -7.182552337646484 1.2318788766860962 -8.971853256225586 17.374696731567383 -12.702089309692383 11.25980281829834 -25.773292541503906 -22.57509994506836 -0.0 0.0 -0.0 -0.0 0.0 -0.0 -0.0 0.0 -0.0 31.957595825195312 14.002986907958984 37.48659896850586 -15.050497055053711 -7.834094047546387 27.692598342895508 -0.4524043798446655 18.47577476501465 2.6939311027526855 -0.0 0.0 -0.0 -0.0 0.0 -0.0 -0.0 0.0 -0.0 7.73087739944458 5.47489595413208 0.41732463240623474 -0.0 0.0 -0.0 2.9054994583129883 0.9650753736495972 0.10300876200199127 -0.0 0.0 -0.0 10.278595924377441 0.7317469120025635 0.026285577565431595 -0.0 0.0 -0.0 2.221662759780884 -0.7335850596427917 -0.20831839740276337 -0.0 0.0 -0.0 -107.71900177001953 52.610198974609375 45.07920837402344 28.23320198059082 -38.930694580078125 -82.02619934082031 2.1273601055145264 -37.552894592285156 6.208615779876709 -0.0 0.0 -0.0 -0.0 0.0 -0.0 -0.0 0.0 -0.0 -7.73087739944458 5.47489595413208 -0.41732463240623474 -0.0 0.0 -0.0 -2.9054994583129883 0.9650753736495972 -0.10300876200199127 -0.0 0.0 -0.0 -10.278595924377441 0.7317469120025635 -0.026285577565431595 -0.0 0.0 -0.0 -2.221662759780884 -0.7335850596427917 0.20831839740276337 -0.0 0.0 -0.0 -75.87639617919922 -55.76130676269531 -65.90980529785156 -4.560144424438477 78.67837524414062 4.68325662612915 2.384946823120117 -3.3513450622558594 13.53100299835205 -0.0 0.0 -0.0 15.26810359954834 17.062400817871094 1.9456011056900024 -0.20456328988075256 29.02559471130371 -2.891024112701416 6.414758205413818 -15.21348762512207 32.64730453491211
-0.10627000087879424 49.8786985874176 11.32000005163718 11.97169303894043 30.72829818725586 9.12670612335205 -20.391708374023438 9.573125839233398 4.3337273597717285 5.435474872589111 -7.203840255737305 1.2340625524520874 -8.947488784790039 17.34980010986328 -12.733695030212402 11.234902381896973 -25.735090255737305 -22.6416015625 -0.0 0.0 -0.0 -0.0 0.0 -0.0 -0.0 0.0 -0.0 31.91822052001953 13.973450660705566 37.48891830444336 -15.000009536743164 -7.790139198303223 27.588499069213867 -0.4391407072544098 18.502201080322266 2.6956145763397217 -0.0 0.0 -0.0 -0.0 0.0 -0.0 -0.0 0.0 -0.0 7.73087739944458 5.47489595413208 0.41732463240623474 -0.0 0.0 -0.0 2.9054994583129883 0.9650753736495972 0.10300876200199127 -0.0 0.0 -0.0 10.278595924377441 0.7317469120025635 0.026285577565431595 -0.0 0.0 -0.0 2.221662759780884 -0.7335850596427917 -0.20831839740276337 -0.0 0.0 -0.0 -107.73099517822266 52.56351852416992 45.050106048583984 28.233793258666992 -38.925804138183594 -82.01789855957031 2.11008620262146 -37.54939651489258 6.201960563659668 -0.0 0.0 -0.0 -0.0 0.0 -0.0 -0.0 0.0 -0.0 -7.73087739944458 5.47489595413208 -0.41732463240623474 -0.0 0.0 -0.0 -2.9054994583129883 0.9650753736495972 -0.10300876200199127 -0.0 0.0 -0.0 -10.278595924377441 0.7317469120025635 -0.026285577565431595 -0.0 0.0 -0.0 -2.221662759780884 -0.7335850596427917 0.20831839740276337 -0.0 0.0 -0.0 -76.02978515625 -55.748390197753906 -66.04808807373047 -4.597105503082275 78.74828338623047 4.716911315917969 2.401632308959961 -3.3919589519500732 13.572297096252441 -0.0 0.0 -0.0 15.268113136291504 17.04429054260254 1.9732016324996948 -0.20503924787044525 29.017606735229492 -2.8916430473327637 6.418515205383301 -15.239795684814453 32.6260986328125
-0.07387000155176793 49.857598543167114 11.345100050675683 11.971096992492676 30.749000549316406 9.158686637878418 -20.36919593811035 9.58002758026123 4.315066337585449 5.458192348480225 -7.223171234130859 1.2301230430603027 -8.943621635437012 17.313201904296875 -12.766488075256348 11.244003295898438 -25.68480110168457 -22.702693939208984 -0.0 0.0 -0.0 -0.0 0.0 -0.0 -0.0 0.0 -0.0 31.851789474487305 13.95621109008789 37.51198959350586 -14.96250057220459 -7.757690906524658 27.51129722595215 -0.44042065739631653 18.527889251708984 2.699655532836914 -0.0 0.0 -0.0 -0.0 0.0 -0.0 -0.0 0.0 -0.0 7.73087739944458 5.47489595413208 0.41732463240623474 -0.0 0.0 -0.0 2.9054994583129883 0.9650753736495972 0.10300876200199127 -0.0 0.0 -0.0 10.278595924377441 0.7317469120025635 0.026285577565431595 -0.0 0.0 -0.0 2.221662759780884 -0.7335850596427917 -0.20831839740276337 -0.0 0.0 -0.0 -107.82398986816406 52.523799896240234 45.11859893798828 28.232093811035156 -38.9386100769043 -82.0409927368164 2.110480546951294 -37.552303314208984 6.202601909637451 -0.0 0.0 -0.0 -0.0 0.0 -0.0 -0.0 0.0 -0.0 -7.73087739944458 5.47489595413208 -0.41732463240623474 -0.0 0.0 -0.0 -2.9054994583129883 0.9650753736495972 -0.10300876200199127 -0.0 0.0 -0.0 -10.278595924377441 0.7317469120025635 -0.026285577565431595 -0.0 0.0 -0.0 -2.221662759780884 -0.7335850596427917 0.20831839740276337 -0.0 0.0 -0.0 -76.15320587158203 -55.684898376464844 -66.18621063232422 -4.629952907562256 78.80612182617188 4.743044853210449 2.42632794380188 -3.423755645751953 13.679298400878906 -0.0 0.0 -0.0 15.280485153198242 17.038698196411133 1.9812790155410767 -0.20517493784427643 29.017595291137695 -2.8928139209747314 6.42173957824707 -15.256210327148438 32.61779022216797
-0.04401000119287346 49.83749985694885 11.372000051778741 11.94979476928711 30.780799865722656 9.164204597473145 -20.318397521972656 9.593071937561035 4.2978034019470215 5.467218399047852 -7.23058557510376 1.226820468902588 -8.934147834777832 17.284202575683594 -12.790400505065918 11.26590347290039 -25.671695709228516 -22.742799758911133 -0.0 0.0 -0.0 -0.0 0.0 -0.0 -0.0 0.0 -0.0 31.800710678100586 13.92128849029541 37.53089904785156 -14.940385818481445 -7.739544868469238 27.466394424438477 -0.442375510931015 18.56730079650879 2.7057785987854004 -0.0 0.0 -0.0 -0.0 0.0 -0.0 -0.0 0.0 -0.0 7.73087739944458 5.47489595413208 0.41732463240623474 -0.0 0.0 -0.0 2.9054994583129883 0.9650753736495972 0.10300876200199127 -0.0 0.0 -0.0 10.278595924377441 0.7317469120025635 0.026285577565431595 -0.0 0.0 -0.0 2.221662759780884 -0.7335850596427917 -0.20831839740276337 -0.0 0.0 -0.0 -107.93899536132812 52.51359558105469 45.21710205078125 28.23130226135254 -38.9492073059082 -82.05650329589844 2.088108777999878 -37.51139831542969 6.187596321105957 -0.0 0.0 -0.0 -0.0 0.0 -0.0 -0.0 0.0 -0.0 -7.73087739944458 5.47489595413208 -0.41732463240623474 -0.0 0.0 -0.0 -2.9054994583129883 0.9650753736495972 -0.10300876200199127 -0.0 0.0 -0.0 -10.278595924377441 0.7317469120025635 -0.026285577565431595 -0.0 0.0 -0.0 -2.221662759780884 -0.7335850596427917 0.20831839740276337 -0.0 0.0 -0.0 -76.22587585449219 -55.62348556518555 -66.2986831665039 -4.65687370300293 78.85138702392578 4.762866497039795 2.4484972953796387 -3.453585147857666 13.780192375183105 -0.0 0.0 -0.0 15.302802085876465 17.03510284423828 1.9723678827285767 -0.20507313311100006 29.037994384765625 -2.8942129611968994 6.4469075202941895 -15.288156509399414 32.640106201171875
-0.0226400014526007 49.820899963378906 11.396600052830763 11.900190353393555 30.79199981689453 9.15469741821289 -20.239288330078125 9.612181663513184 4.282113552093506 5.462597846984863 -7.226027965545654 1.2240681648254395 -8.919053077697754 17.262706756591797 -12.8056001663208 11.300498962402344 -25.695606231689453 -22.762100219726562 -0.0 0.0 -0.0 -0.0 0.0 -0.0 -0.0 0.0 -0.0 31.764694213867188 13.868746757507324 37.5457878112793 -14.933516502380371 -7.735722541809082 27.45380973815918 -0.4450240731239319 18.620290756225586 2.7140913009643555 -0.0 0.0 -0.0 -0.0 0.0 -0.0 -0.0 0.0 -0.0 7.73087739944458 5.47489595413208 0.41732463240623474 -0.0 0.0 -0.0 2.9054994583129883 0.9650753736495972 0.10300876200199127 -0.0 0.0 -0.0 10.278595924377441 0.7317469120025635 0.026285577565431595 -0.0 0.0 -0.0 2.221662759780884 -0.7335850596427917 -0.20831839740276337 -0.0 0.0 -0.0 -108.07699584960938 52.5327033996582 45.34558868408203 28.231386184692383 -38.95781707763672 -82.06449127197266 2.0694446563720703 -37.42542266845703 6.165915012359619 -0.0 0.0 -0.0 -0.0 0.0 -0.0 -0.0 0.0 -0.0 -7.73087739944458 5.47489595413208 -0.41732463240623474 -0.0 0.0 -0.0 -2.9054994583129883 0.9650753736495972 -0.10300876200199127 -0.0 0.0 -0.0 -10.278595924377441 0.7317469120025635 -0.026285577565431595 -0.0 0.0 -0.0 -2.221662759780884 -0.7335850596427917 0.20831839740276337 -0.0 0.0 -0.0 -76.24789428710938 -55.564388275146484 -66.3858871459961 -4.677253246307373 78.88409423828125 4.775604248046875 2.4681804180145264 -3.4815168380737305 13.874809265136719 -0.0 0.0 -0.0 15.335097312927246 17.033498764038086 1.9464681148529053 -0.20460522174835205 29.078811645507812 -2.8959102630615234 6.493615627288818 -15.335801124572754 32.69309997558594
